<?xml version="1.0" standalone="no"?>
<!DOCTYPE svg PUBLIC "-//W3C//DTD SVG 20010904//EN"
 "http://www.w3.org/TR/2001/REC-SVG-20010904/DTD/svg10.dtd">
<svg version="1.0" xmlns="http://www.w3.org/2000/svg"
 width="235.000000pt" height="125.000000pt" viewBox="0 0 235.000000 125.000000"
 preserveAspectRatio="xMidYMid meet">
<metadata>
Created by potrace 1.13, written by Peter Selinger 2001-2015
</metadata>
<g transform="translate(0.000000,125.000000) scale(0.100000,-0.100000)"
fill="#000000" stroke="none">
<path d="M765 1236 c-126 -31 -237 -121 -294 -238 -30 -61 -37 -68 -70 -74
-202 -33 -337 -153 -386 -341 -78 -301 186 -597 492 -553 161 23 304 132 358
274 16 43 18 44 72 50 59 7 105 23 171 62 l43 25 -35 39 c-93 104 -130 203
-124 340 3 81 8 105 35 162 18 37 53 90 79 118 54 58 54 58 -42 105 -95 45
-197 56 -299 31z m-178 -331 c191 -57 326 -257 310 -462 -3 -40 -8 -77 -12
-83 -18 -30 -177 7 -258 61 -137 91 -219 258 -203 416 10 95 11 96 66 89 26
-4 70 -13 97 -21z"/>
<path d="M1323 1235 c-54 -15 -112 -42 -147 -68 -19 -14 -18 -16 27 -66 155
-174 156 -435 1 -601 -24 -26 -44 -50 -44 -53 0 -13 80 -57 139 -77 33 -11 83
-20 111 -20 40 0 52 -4 56 -18 3 -9 19 -45 35 -80 81 -174 280 -277 469 -244
263 45 431 302 365 557 -47 179 -210 319 -388 332 l-73 6 -18 50 c-77 216
-314 341 -533 282z m559 -385 c10 -70 -9 -175 -44 -249 -39 -82 -124 -168
-203 -206 -60 -28 -160 -53 -171 -43 -3 4 -8 35 -11 70 -11 131 39 258 135
350 82 78 190 130 262 125 22 -2 26 -8 32 -47z"/>
</g>
</svg>
